<?xml version="1.0" encoding="iso-8859-1"?>
<!-- Generator: Adobe Illustrator 19.0.0, SVG Export Plug-In . SVG Version: 6.00 Build 0)  -->
<svg version="1.1" id="Capa_1" xmlns="http://www.w3.org/2000/svg" xmlns:xlink="http://www.w3.org/1999/xlink" x="0px" y="0px"
	 viewBox="0 0 400 400" style="enable-background:new 0 0 400 400;" xml:space="preserve">
<g>
	<g>
		<path style="fill:#5D505B;" d="M400,318.644C400,363.577,364.018,400,319.633,400H80.365C35.98,400,0,363.577,0,318.644V81.356
			C0,36.423,35.98,0,80.365,0h239.268C364.018,0,400,36.423,400,81.356V318.644z"/>
		<path style="fill:#534551;" d="M400,318.644v-113.91l-90.33-72.646l-41.32,2.525L210.8,255.887l-93.293-9.511l-55.125,14.54
			L208.402,400h111.23C364.018,400,400,363.574,400,318.644z"/>
		<path style="fill:#FFFFFF;" d="M335.401,188.611c0.779-3.581,1.203-7.294,1.203-11.112c0-28.413-22.756-51.447-50.823-51.447
			c-9.178,0-17.781,2.475-25.213,6.782c-9.301-10.415-22.75-16.959-37.71-16.959c-9.414,0-18.224,2.6-25.785,7.117
			c-8.842-7.548-20.261-12.103-32.731-12.103c-10.72,0-20.66,3.368-28.859,9.105c-7.137-3.872-15.291-6.07-23.954-6.07
			c-28.067,0-50.823,23.034-50.823,51.449c0,9.438,2.523,18.279,6.905,25.882c-9.988,9.396-16.245,22.803-16.245,37.693
			c0,28.415,22.755,51.448,50.823,51.448c11.355,0,21.839-3.771,30.296-10.142c8.682,15.783,25.318,26.467,44.43,26.467
			c15.812,0,29.937-7.313,39.261-18.779c9.102,8.697,21.365,14.037,34.867,14.037c13.821,0,26.344-5.592,35.506-14.653
			c5.408,1.984,11.241,3.07,17.326,3.07c28.067,0,50.823-23.033,50.823-51.448C354.698,212.594,347.151,198.033,335.401,188.611z"/>
		<g>
			<path style="fill:#D66D5D;" d="M99.938,240.287c-2.342,0-4.218-1.896-4.218-4.268v-71.364c0-2.371,1.875-4.268,4.218-4.268
				h11.592c13.701,0,19.79,7.585,19.79,22.88c0,11.022-5.036,17.07-5.036,17.07c3.046,3.794,5.036,9.84,5.036,17.072
				c0,15.29-6.089,22.878-19.79,22.878L99.938,240.287L99.938,240.287z M107.431,172.122v22.289h4.099
				c5.737,0,8.081-3.202,8.081-11.143c0-7.944-2.344-11.146-8.081-11.146H107.431z M107.431,206.146v22.405h4.099
				c5.737,0,8.081-3.2,8.081-11.142c0-8.062-2.344-11.264-8.081-11.264h-4.099V206.146z"/>
			<path style="fill:#D66D5D;" d="M143.147,183.502c0-14.936,6.443-23.115,19.205-23.115c12.881,0,19.207,8.06,19.207,23.115v33.548
				c0,9.366-2.459,14.82-6.091,18.494c-3.864,3.793-8.781,4.742-13.116,4.742c-4.215,0-9.134-0.949-12.998-4.742
				c-3.63-3.674-6.207-9.128-6.207-18.494L143.147,183.502L143.147,183.502z M154.859,217.051c0,7.825,2.457,11.5,7.493,11.5
				c4.919,0,7.496-3.438,7.496-11.5v-33.548c0-7.941-2.459-11.38-7.496-11.38c-5.151,0-7.493,3.676-7.493,11.38V217.051z"/>
			<path style="fill:#D66D5D;" d="M193.619,183.502c0-14.936,6.442-23.115,19.204-23.115c12.882,0,19.207,8.06,19.207,23.115v33.548
				c0,9.366-2.46,14.82-6.091,18.494c-3.862,3.793-8.781,4.742-13.116,4.742c-4.215,0-9.132-0.949-12.998-4.742
				c-3.629-3.674-6.206-9.128-6.206-18.494L193.619,183.502L193.619,183.502z M205.33,217.051c0,7.825,2.459,11.5,7.493,11.5
				c4.919,0,7.496-3.438,7.496-11.5v-33.548c0-7.941-2.46-11.38-7.496-11.38c-5.151,0-7.493,3.676-7.493,11.38V217.051z"/>
			<path style="fill:#D66D5D;" d="M263.531,240.287c-1.756,0-3.631-1.543-3.98-3.318l-3.981-26.675v25.726
				c0,2.371-1.991,4.268-4.216,4.268h-3.277c-2.347,0-4.218-1.896-4.218-4.268v-71.364c0-2.371,1.871-4.268,4.218-4.268h3.51
				c1.758,0,3.632,1.541,3.983,3.318l9.249,47.774l9.135-47.774c0.354-1.778,2.342-3.318,4.101-3.318h3.51
				c2.343,0,4.218,1.896,4.218,4.268v71.364c0,2.371-1.875,4.268-4.218,4.268h-3.277c-2.341,0-4.216-1.896-4.216-4.268v-25.488
				l-3.864,26.316c-0.469,1.896-2.342,3.439-4.1,3.439L263.531,240.287L263.531,240.287z"/>
			<path style="fill:#D66D5D;" d="M309.67,219.659c0,2.253-1.873,4.27-4.216,4.27h-3.277c-2.225,0-4.099-2.017-4.099-4.27v-55.125
				c0-2.369,1.874-4.265,4.099-4.265h3.277c2.343,0,4.216,1.896,4.216,4.265V219.659z M305.454,227.126
				c2.343,0,4.216,1.899,4.216,4.271v4.504c0,2.371-1.873,4.268-4.216,4.268h-3.277c-2.225,0-4.099-1.896-4.099-4.268v-4.504
				c0-2.371,1.874-4.271,4.099-4.271H305.454z"/>
		</g>
		<path style="opacity:0.28;fill:#534551;enable-background:new    ;" d="M216.176,277.942c9.102,8.697,21.365,14.037,34.867,14.037
			c13.821,0,26.344-5.592,35.506-14.653c5.408,1.984,11.241,3.07,17.326,3.07c28.067,0,50.823-23.033,50.823-51.448
			c0-16.354-7.547-30.916-19.297-40.337c0.779-3.581,1.203-7.294,1.203-11.112c0-28.413-22.756-51.447-50.823-51.447
			c-9.178,0-17.781,2.475-25.213,6.782c-9.301-10.415-22.75-16.959-37.71-16.959c-8.226,0-15.988,1.986-22.86,5.5v169.722
			C206.245,287.866,211.754,283.378,216.176,277.942z"/>
	</g>
</g>
<g>
</g>
<g>
</g>
<g>
</g>
<g>
</g>
<g>
</g>
<g>
</g>
<g>
</g>
<g>
</g>
<g>
</g>
<g>
</g>
<g>
</g>
<g>
</g>
<g>
</g>
<g>
</g>
<g>
</g>
</svg>
