<?xml version="1.0" standalone="no"?>
<!DOCTYPE svg PUBLIC "-//W3C//DTD SVG 20010904//EN"
 "http://www.w3.org/TR/2001/REC-SVG-20010904/DTD/svg10.dtd">
<svg version="1.0" xmlns="http://www.w3.org/2000/svg"
 width="1280.000000pt" height="640.000000pt" viewBox="0 0 1280.000000 640.000000"
 preserveAspectRatio="xMidYMid meet">
<metadata>
Created by potrace 1.15, written by Peter Selinger 2001-2017
https://svgsilh.com/image/312449.html
</metadata>
<g transform="translate(0.000000,750.000000) scale(0.100000,-0.100000)"
fill="#000000" stroke="none">
<path style="fill:lightblue"
d="M5470 4329 c0 -6 -8 -8 -18 -5 -14 5 -27 -6 -51 -39 -205 -285 -619
-469 -959 -427 -186 24 -355 88 -509 194 -83 57 -210 179 -251 240 -13 21 -28
38 -31 38 -4 0 -14 -13 -24 -29 -29 -49 -154 -177 -225 -229 -436 -323 -1033
-288 -1422 84 -44 43 -97 99 -116 126 -20 26 -39 48 -42 48 -4 0 -25 -26 -47
-56 -50 -70 -167 -180 -248 -234 -315 -208 -711 -246 -1059 -100 -114 47 -248
140 -350 243 -69 69 -90 86 -86 67 4 -14 37 -247 74 -519 l69 -493 61 -44
c172 -122 394 -184 662 -184 271 0 489 64 690 203 72 50 178 155 210 209 9 16
19 28 23 28 3 0 19 -18 34 -40 35 -50 156 -166 219 -209 80 -55 246 -128 356
-156 140 -36 358 -45 506 -22 294 47 531 181 688 390 l29 37 21 -29 c11 -16
42 -54 69 -84 26 -30 47 -64 47 -76 0 -27 95 -98 194 -145 156 -74 320 -106
553 -106 227 0 386 29 540 100 131 61 253 153 253 191 0 10 17 37 38 61 20 24
44 54 52 67 l16 24 53 -65 c160 -198 404 -328 690 -369 117 -16 342 -7 459 20
240 55 448 178 576 342 l53 67 59 -72 c161 -193 386 -314 661 -355 92 -14 303
-14 396 0 288 42 533 176 684 372 l46 60 21 -29 c82 -116 218 -225 371 -299
156 -76 280 -106 470 -112 385 -14 700 113 909 364 l59 71 40 -51 c186 -235
475 -371 817 -384 287 -11 518 46 706 175 96 65 111 86 123 172 26 190 132
919 138 950 6 34 5 34 -40 -25 -318 -421 -894 -554 -1365 -316 -145 74 -301
202 -383 316 -18 25 -35 45 -39 45 -3 0 -13 -13 -23 -29 -29 -49 -154 -177
-225 -229 -379 -282 -881 -295 -1277 -33 -81 53 -210 173 -261 243 -24 32 -42
47 -54 45 -10 -2 -39 -31 -65 -65 -80 -107 -229 -228 -363 -296 -129 -65 -341
-116 -487 -116 -86 0 -229 23 -318 50 -184 57 -322 145 -486 311 l-117 118
-54 -71 c-86 -113 -213 -215 -357 -287 -389 -196 -851 -148 -1191 125 -111 89
-194 187 -186 220 3 13 3 24 0 24 -3 0 -6 -5 -6 -11z"/>

<path style="fill:lightblue"
d="M1750 3324 c-143 -190 -359 -330 -605 -395 -79 -21 -112 -24 -275
-24 -162 0 -195 3 -265 23 -224 64 -390 163 -536 320 -69 75 -70 76 -64 42 6
-36 90 -634 121 -868 l18 -134 50 -39 c247 -197 733 -253 1100 -127 186 63
364 191 468 335 l30 42 57 -71 c206 -259 600 -407 979 -368 211 22 399 86 551
189 69 47 190 164 217 210 10 17 21 31 25 31 4 0 23 -21 42 -47 20 -27 56 -68
81 -93 25 -24 46 -49 46 -55 0 -16 109 -93 185 -129 310 -151 783 -151 1090
-2 144 69 190 109 354 306 l21 25 22 -30 c47 -66 189 -195 269 -244 248 -152
559 -202 879 -141 264 51 478 179 633 380 l27 35 17 -25 c41 -60 165 -176 243
-229 333 -223 864 -252 1235 -68 132 65 270 179 353 292 l22 30 32 -40 c180
-227 445 -363 773 -396 276 -28 581 48 790 196 64 45 170 149 208 203 12 17
25 32 28 32 4 0 19 -18 34 -40 41 -59 157 -165 238 -217 383 -249 997 -235
1332 29 l70 55 76 529 c42 291 76 530 75 531 -2 2 -31 -33 -66 -77 -120 -154
-303 -281 -494 -346 -213 -73 -489 -73 -702 0 -196 66 -410 218 -520 368 -20
26 -39 48 -43 48 -4 0 -22 -19 -39 -43 -52 -73 -173 -186 -260 -244 -99 -66
-224 -122 -342 -153 -119 -31 -350 -39 -473 -16 -256 48 -499 194 -658 393
l-58 73 -25 -33 -26 -32 0 34 0 33 -43 -58 c-59 -80 -183 -196 -270 -252 -88
-57 -218 -114 -329 -144 -119 -32 -375 -33 -493 -1 -217 59 -385 160 -535 320
-62 66 -72 74 -68 51 3 -16 4 -28 2 -28 -2 0 -22 25 -45 55 l-41 54 -43 -57
c-156 -207 -397 -353 -674 -408 -128 -25 -364 -15 -486 20 -122 36 -273 111
-370 183 -84 62 -200 179 -231 232 -10 17 -21 31 -24 31 -3 0 -23 -26 -45 -56
-50 -70 -164 -179 -244 -233 -92 -63 -233 -127 -346 -158 -91 -25 -116 -28
-270 -28 -181 0 -250 11 -378 59 -192 72 -379 208 -491 357 l-45 59 -32 -47
c-86 -125 -281 -279 -437 -344 -150 -63 -233 -80 -402 -86 -185 -7 -281 8
-435 68 -205 79 -378 213 -508 392 -12 18 -16 15 -57 -39z"/>
</g>
</svg>
